<svg width="529" height="445" viewBox="0 0 529 445" fill="none" xmlns="http://www.w3.org/2000/svg">
<path fill-rule="evenodd" clip-rule="evenodd" d="M403.5 1.5174C405.486 -0.195611 408.388 -0.558731 411.054 0.947088C483.363 36.9695 501.891 73.7002 497.483 104.043C495.285 119.176 487.385 132.63 477.767 143.511C468.762 153.697 458.227 161.655 449.383 166.652C457.639 166.66 467.039 168.725 475.583 171.371C484.269 174.06 492.11 177.36 497.029 179.749L497.974 180.215L498.123 180.289L498.197 180.439C500.364 184.801 504.174 188.616 508.09 191.62C511.757 194.433 515.483 196.51 517.958 197.638L518.437 197.851L518.605 197.926L518.687 198.092C519.824 200.43 520.826 204.075 521.715 208.721C522.606 213.377 523.391 219.076 524.081 225.546C525.461 238.485 526.465 254.532 527.181 271.531C528.612 305.531 528.888 343.369 528.703 367.835L528.7 368.21L528.339 368.311C506.058 374.603 483.37 388.57 464.044 403.501C444.724 418.427 428.8 434.288 420.054 444.327L419.667 444.771L419.291 444.317C418.827 443.755 417.972 442.973 416.771 442.007C415.579 441.047 414.071 439.924 412.324 438.681C408.83 436.197 404.393 433.247 399.639 430.183C390.13 424.057 379.366 417.488 372.355 413.31L372.306 413.281L372.264 413.241C362.144 403.461 345.143 394.317 327.95 386.855C310.771 379.399 293.461 373.647 282.775 370.634L282.659 370.601L282.57 370.518C278.51 366.735 274.693 360.236 271.579 353.706C268.458 347.161 266.014 340.521 264.716 336.399L264.666 336.242L264.72 336.087C289.595 263.292 279.094 211.4 274.107 150.049L274.094 149.886L274.18 149.746C278.1 143.404 283.655 137.991 290.911 132.392C298.163 126.797 307.147 120.993 317.935 113.888C339.519 99.6704 368.427 80.1799 405.498 46.533C409.303 43.0792 411.07 39.6191 411.586 36.2606C412.104 32.8919 411.373 29.5658 410.077 26.3709C408.78 23.1723 406.934 20.1431 405.251 17.3602C403.587 14.6074 402.051 12.0507 401.475 9.8758C400.511 6.2388 401.51 3.23432 403.5 1.5174ZM280.244 350.397L287.996 366.653L288.125 366.924L288.425 366.937C308.894 367.86 334.138 378.914 357.424 392.415C380.692 405.905 401.931 421.794 414.37 432.305L415.767 433.486L415.165 431.76C405.578 404.269 381.121 384.877 354.545 371.806C327.959 358.731 299.166 351.937 280.756 349.686L279.852 349.576L280.244 350.397ZM509.148 348.344C497.967 354.079 479.927 364.237 462.131 376.076C444.346 387.908 426.759 401.45 416.521 413.958L416.419 414.082L416.408 414.242C416.215 417.161 417.441 424.2 423.784 429.52L424.135 429.814L424.459 429.491C435.151 418.822 452.934 402.653 471.524 388.83C480.82 381.919 490.308 375.6 499.206 370.849C508.113 366.094 516.388 362.932 523.266 362.291L524.37 362.188L523.562 361.429L509.719 348.425L509.462 348.183L509.148 348.344ZM278.48 335.32L359.876 359.935C358.547 355.477 358.768 354.517 357.107 352.505L286.232 330.676L305.059 263.332C304.173 254.786 301.736 249.863 300.629 248.47L278.48 335.32ZM505.555 200.653L511.092 338.127C511.102 340.577 512.908 342.943 514.992 344.85C517.109 346.787 519.639 348.367 521.33 349.234L522.059 349.607V348.789C522.059 344.315 518.366 260.2 516.521 218.723H516.521L516.521 218.711L516.494 218.401C516.179 215.192 514.463 211.559 512.474 208.335C510.411 204.992 508.01 202.017 506.423 200.294L505.5 199.293L505.555 200.653ZM412.149 183.536C406.194 188.716 401.573 191.628 398.232 193.166C396.562 193.935 395.219 194.357 394.195 194.551C393.158 194.747 392.493 194.701 392.149 194.586L391.785 194.464L391.573 194.783C390.414 196.534 389.412 199.415 388.533 203.137C387.651 206.873 386.88 211.511 386.208 216.815C384.865 227.425 383.913 240.737 383.255 254.914C381.939 283.269 381.8 315.117 382.077 335.791L382.085 336.37L382.656 336.278C387.442 335.514 392.834 332.191 397.589 328.42C402.36 324.636 406.564 320.34 408.98 317.533L409.149 317.337L409.087 317.086C405.564 303.05 405.464 277.966 406.789 252.246C408.113 226.551 410.852 200.3 412.974 183.977L413.144 182.672L412.149 183.536ZM435.18 39.9363C407.273 83.0363 336.804 125.084 305.059 140.721C295.646 146.758 293.8 152.796 293.431 152.796C300.518 172.488 301.183 214.257 300.629 232.68C300.523 238.252 303.538 240.574 305.059 241.039C309.162 227.663 306.166 180.197 300.629 155.582C302.29 148.615 305.797 147.222 309.488 144.435C343.264 128.644 400.85 92.4186 430.196 57.5858C433.519 49.6903 436.103 42.8778 435.18 39.9363ZM483.961 73.8446C484.401 128.153 443.412 152.501 422.872 157.885L421.407 158.269L422.812 158.833L435.548 163.941L435.759 164.026L435.961 163.923C467.05 148.09 481.742 129.774 487.425 113.249C493.104 96.7324 489.76 82.0684 484.895 73.5916L483.945 71.9383L483.961 73.8446Z" fill="white"/>
<path fill-rule="evenodd" clip-rule="evenodd" d="M125.254 1.51768C123.268 -0.195407 120.366 -0.558478 117.7 0.947365C45.3913 36.9699 26.8624 73.7005 31.2705 104.043C33.469 119.176 41.3689 132.63 50.9873 143.511C59.9921 153.698 70.5267 161.655 79.3711 166.652C71.1152 166.66 61.715 168.726 53.1709 171.371C44.4848 174.061 36.6438 177.36 31.7246 179.749L30.7803 180.215L30.6309 180.289L30.5566 180.44C28.3897 184.802 24.5797 188.616 20.6641 191.62C16.9971 194.433 13.2708 196.51 10.7959 197.639L10.3174 197.852L10.1484 197.926L10.0674 198.092C8.92966 200.43 7.92801 204.076 7.03906 208.721C6.14798 213.377 5.36288 219.077 4.67285 225.546C3.29269 238.485 2.28864 254.532 1.57324 271.531C0.142395 305.531 -0.13382 343.369 0.0507812 367.835L0.0537109 368.21L0.415039 368.312C22.6957 374.603 45.3844 388.571 64.71 403.501C84.0305 418.427 99.9539 434.288 108.7 444.327L109.087 444.772L109.463 444.317C109.927 443.756 110.782 442.973 111.982 442.007C113.175 441.047 114.683 439.924 116.43 438.682C119.924 436.198 124.361 433.247 129.115 430.184C138.623 424.057 149.388 417.489 156.398 413.311L156.448 413.281L156.49 413.241C166.61 403.462 183.611 394.318 200.804 386.856C217.982 379.4 235.292 373.647 245.979 370.634L246.095 370.602L246.184 370.519C250.244 366.735 254.061 360.236 257.175 353.706C260.296 347.161 262.74 340.521 264.038 336.4L264.088 336.242L264.034 336.087C239.159 263.292 249.659 211.4 254.646 150.049L254.66 149.886L254.574 149.746C250.654 143.404 245.099 137.991 237.843 132.393C230.591 126.798 221.607 120.993 210.819 113.888C189.234 99.6707 160.327 80.1802 123.256 46.5333C119.451 43.0794 117.684 39.6194 117.168 36.2608C116.65 32.8922 117.381 29.5661 118.677 26.3712C119.974 23.1726 121.82 20.1433 123.503 17.3605C125.167 14.6078 126.703 12.051 127.279 9.87608C128.243 6.23903 127.244 3.23462 125.254 1.51768ZM248.51 350.398L240.758 366.653L240.629 366.924L240.329 366.938C219.86 367.861 194.616 378.914 171.33 392.415C148.062 405.906 126.823 421.795 114.384 432.306L112.987 433.486L113.589 431.76C123.176 404.269 147.633 384.878 174.209 371.807C200.795 358.731 229.588 351.937 247.998 349.687L248.902 349.576L248.51 350.398ZM19.6055 348.344C30.7868 354.08 48.8272 364.237 66.623 376.076C84.4079 387.908 101.995 401.45 112.233 413.958L112.335 414.082L112.346 414.242C112.539 417.161 111.313 424.2 104.97 429.521L104.619 429.815L104.295 429.491C93.6032 418.822 75.8199 402.653 57.2295 388.83C47.9343 381.919 38.4457 375.6 29.5479 370.85C20.6411 366.094 12.366 362.932 5.48828 362.291L4.38379 362.189L5.19238 361.429L19.0352 348.425L19.292 348.184L19.6055 348.344ZM250.273 335.32L168.878 359.936C170.207 355.477 169.985 354.517 171.646 352.504L242.521 330.676L223.695 263.332C224.581 254.786 227.018 249.863 228.125 248.47L250.273 335.32ZM23.1992 200.653L17.6621 338.127C17.6523 340.577 15.8456 342.943 13.7617 344.851C11.6453 346.788 9.11476 348.368 7.42383 349.234L6.69531 349.608V348.789C6.69531 344.316 10.3883 260.201 12.2334 218.724H12.2324L12.2334 218.711L12.2598 218.401C12.5745 215.192 14.2907 211.56 16.2803 208.335C18.343 204.992 20.7434 202.017 22.3311 200.294L23.2539 199.293L23.1992 200.653ZM116.604 183.536C122.56 188.717 127.181 191.628 130.521 193.166C132.192 193.935 133.535 194.357 134.559 194.551C135.596 194.747 136.261 194.701 136.604 194.586L136.969 194.464L137.181 194.783C138.34 196.534 139.342 199.416 140.221 203.137C141.103 206.873 141.874 211.511 142.546 216.816C143.889 227.425 144.841 240.738 145.499 254.914C146.815 283.269 146.954 315.117 146.677 335.791L146.669 336.37L146.098 336.278C141.312 335.514 135.92 332.191 131.165 328.42C126.394 324.636 122.19 320.34 119.773 317.533L119.604 317.337L119.667 317.086C123.19 303.051 123.29 277.966 121.965 252.246C120.641 226.551 117.901 200.3 115.78 183.978L115.61 182.672L116.604 183.536ZM93.5742 39.9366C121.481 83.0366 191.949 125.084 223.695 140.72C233.108 146.758 234.954 152.795 235.323 152.795C228.236 172.487 227.571 214.256 228.125 232.679C228.231 238.252 225.216 240.575 223.695 241.039C219.592 227.663 222.588 180.197 228.125 155.582C226.464 148.616 222.957 147.222 219.266 144.436C185.489 128.645 127.904 92.418 98.5576 57.5851C95.2354 49.6897 92.6514 42.878 93.5742 39.9366ZM44.793 73.8448C44.3525 128.153 85.3423 152.501 105.882 157.885L107.347 158.27L105.941 158.833L93.2061 163.942L92.9951 164.026L92.793 163.923C61.7035 148.09 47.0115 129.774 41.3291 113.249C35.6499 96.7327 38.9936 82.0687 43.8594 73.5919L44.8086 71.9386L44.793 73.8448Z" fill="white"/>
</svg>
