<svg width="241" height="221" viewBox="0 0 241 221" fill="none" xmlns="http://www.w3.org/2000/svg">
<rect width="241" height="221" fill="#FFA800"/>
<rect x="120" y="9" width="112" height="204" fill="#FFC24D"/>
<path d="M27.84 110.56C27.84 101.6 29.632 93.6213 33.216 86.624C36.8853 79.6267 42.0907 74.208 48.832 70.368C55.5733 66.4427 63.5093 64.48 72.64 64.48C80.4907 64.48 87.488 65.9733 93.632 68.96C99.8613 71.8613 104.896 76 108.736 81.376C112.661 86.752 115.264 93.024 116.544 100.192H86.592C85.2267 97.2053 83.264 94.9013 80.704 93.28C78.2293 91.5733 75.3707 90.72 72.128 90.72C67.3493 90.72 63.552 92.512 60.736 96.096C58.0053 99.68 56.64 104.501 56.64 110.56C56.64 116.619 58.0053 121.44 60.736 125.024C63.552 128.608 67.3493 130.4 72.128 130.4C75.3707 130.4 78.2293 129.589 80.704 127.968C83.264 126.261 85.2267 123.915 86.592 120.928H116.544C115.264 128.096 112.661 134.368 108.736 139.744C104.896 145.12 99.8613 149.301 93.632 152.288C87.488 155.189 80.4907 156.64 72.64 156.64C63.5093 156.64 55.5733 154.72 48.832 150.88C42.0907 146.955 36.8853 141.493 33.216 134.496C29.632 127.499 27.84 119.52 27.84 110.56ZM218.039 65.376L187.575 156H150.839L120.375 65.376H150.583L169.271 127.712L187.831 65.376H218.039Z" fill="black"/>
</svg>
